<svg width="340" height="317" viewBox="0 0 340 317" fill="none" xmlns="http://www.w3.org/2000/svg">
<path d="M191.269 290.916C178.358 284.051 172.072 267.394 172.533 245.771C172.993 224.18 180.188 197.8 194.03 171.766C207.873 145.731 225.721 125.015 243.363 112.56C261.031 100.087 278.356 95.9834 291.267 102.848C304.178 109.713 310.464 126.37 310.003 147.993C309.543 169.584 302.349 195.965 288.506 221.999C274.663 248.033 256.816 268.749 239.173 281.204C221.505 293.678 204.18 297.781 191.269 290.916Z" stroke="#44FFA1"/>
<path d="M155.269 271.916C142.358 265.051 136.072 248.394 136.533 226.771C136.993 205.18 144.188 178.8 158.03 152.766C171.873 126.731 189.721 106.015 207.363 93.56C225.031 81.0867 242.356 76.9834 255.267 83.8483C268.178 90.7132 274.464 107.37 274.003 128.993C273.543 150.584 266.349 176.965 252.506 202.999C238.663 229.033 220.816 249.749 203.173 262.204C185.505 274.678 168.18 278.781 155.269 271.916Z" stroke="#44FFA1"/>
<path opacity="0.75" d="M120.27 252.916C107.607 246.183 101.538 229.649 102.158 208.107C102.777 186.599 110.07 160.271 123.913 134.235C137.757 108.199 155.506 87.4304 172.99 74.8903C190.503 62.3298 207.604 58.1153 220.267 64.8483C232.93 71.5813 238.999 88.1157 238.379 109.658C237.759 131.165 230.466 157.494 216.623 183.529C202.78 209.565 185.03 230.334 167.546 242.874C150.034 255.435 132.932 259.649 120.27 252.916Z" stroke="#44FFA1"/>
<path opacity="0.5" d="M84.2694 232.916C71.3584 226.051 65.0724 209.394 65.5332 187.771C65.9934 166.18 73.1877 139.8 87.0304 113.766C100.873 87.7311 118.721 67.0151 136.363 54.56C154.031 42.0867 171.356 37.9834 184.267 44.8483C197.178 51.7132 203.464 68.3704 203.003 89.9932C202.543 111.584 195.349 137.965 181.506 163.999C167.663 190.033 149.816 210.749 132.173 223.204C114.505 235.678 97.1804 239.781 84.2694 232.916Z" stroke="#44FFA1"/>
<path opacity="0.25" d="M47.2695 213.916C34.6066 207.183 28.5376 190.649 29.158 169.107C29.7773 147.599 37.0701 121.271 50.9135 95.235C64.7568 69.1994 82.5064 48.4304 99.9904 35.8903C117.503 23.3298 134.604 19.1153 147.267 25.8483C159.93 32.5813 165.999 49.1157 165.379 70.6578C164.759 92.165 157.466 118.494 143.623 144.529C129.78 170.565 112.03 191.334 94.5461 203.874C77.0338 216.435 59.9324 220.649 47.2695 213.916Z" stroke="#44FFA1"/>
</svg>
