<svg width="127" height="181" viewBox="0 0 127 181" fill="none" xmlns="http://www.w3.org/2000/svg">
<path d="M16.5866 94.8908C20.7473 88.7223 29.6009 86.4067 40.7769 87.8652C51.9196 89.3193 65.2062 94.5142 77.976 103.127C90.7457 111.741 100.54 122.114 106.062 131.901C111.601 141.716 112.77 150.793 108.61 156.961C104.449 163.13 95.5954 165.445 84.4194 163.987C73.2767 162.533 59.9901 157.338 47.2203 148.725C34.4506 140.111 24.6568 129.738 19.1344 119.952C13.5955 110.136 12.4259 101.059 16.5866 94.8908Z" stroke="#44FFA1"/>
<path d="M28.5866 76.8908C32.7473 70.7223 41.6009 68.4067 52.7769 69.8652C63.9196 71.3193 77.2062 76.5142 89.976 85.1275C102.746 93.7408 112.54 104.114 118.062 113.901C123.601 123.716 124.77 132.793 120.61 138.961C116.449 145.13 107.595 147.445 96.4194 145.987C85.2767 144.533 71.9901 139.338 59.2203 130.725C46.4506 122.111 36.6568 111.738 31.1344 101.952C25.5955 92.1357 24.4259 83.0593 28.5866 76.8908Z" stroke="#44FFA1"/>
<path opacity="0.75" d="M39.5866 59.8908C43.7473 53.7223 52.6009 51.4067 63.7769 52.8652C74.9196 54.3193 88.2062 59.5142 100.976 68.1275C113.746 76.7408 123.54 87.1139 129.062 96.9005C134.601 106.716 135.77 115.793 131.61 121.961C127.449 128.13 118.595 130.445 107.419 128.987C96.2767 127.533 82.9901 122.338 70.2203 113.725C57.4506 105.111 47.6568 94.7382 42.1344 84.9515C36.5955 75.1357 35.4259 66.0593 39.5866 59.8908Z" stroke="#44FFA1"/>
<path opacity="0.5" d="M51.5866 41.8908C55.7473 35.7223 64.6009 33.4067 75.7769 34.8652C86.9196 36.3193 100.206 41.5142 112.976 50.1275C125.746 58.7408 135.54 69.1139 141.062 78.9005C146.601 88.7164 147.77 97.7927 143.61 103.961C139.449 110.13 130.595 112.445 119.419 110.987C108.277 109.533 94.9901 104.338 82.2203 95.7246C69.4506 87.1113 59.6568 76.7382 54.1344 66.9515C48.5955 57.1357 47.4259 48.0593 51.5866 41.8908Z" stroke="#44FFA1"/>
<path opacity="0.25" d="M64.5866 23.8908C68.7473 17.7223 77.6009 15.4067 88.7769 16.8652C99.9196 18.3193 113.206 23.5142 125.976 32.1275C138.746 40.7408 148.54 51.1139 154.062 60.9005C159.601 70.7164 160.77 79.7927 156.61 85.9612C152.449 92.1297 143.595 94.4453 132.419 92.9869C121.277 91.5327 107.99 86.3379 95.2203 77.7246C82.4506 69.1113 72.6568 58.7382 67.1344 48.9515C61.5955 39.1357 60.4259 30.0593 64.5866 23.8908Z" stroke="#44FFA1"/>
</svg>
